<svg xmlns="http://www.w3.org/2000/svg" xmlns:xlink="http://www.w3.org/1999/xlink" version="1.1" width="256" height="256" viewBox="0 0 256 256" xml:space="preserve">

<defs>
</defs>
<g style="stroke: none; stroke-width: 0; stroke-dasharray: none; stroke-linecap: butt; stroke-linejoin: miter; stroke-miterlimit: 10; fill: none; fill-rule: nonzero; opacity: 1;" transform="translate(1.4065934065934016 1.4065934065934016) scale(2.81 2.81)" >
	<path d="M 21.584 58.488 c -4.583 0 -8.311 -3.729 -8.311 -8.311 V 39.822 c 0 -4.583 3.728 -8.311 8.311 -8.311 c 4.582 0 8.31 3.728 8.31 8.311 v 10.356 C 29.895 54.76 26.167 58.488 21.584 58.488 z M 21.584 33.511 c -3.479 0 -6.311 2.831 -6.311 6.311 v 10.356 c 0 3.479 2.831 6.311 6.311 6.311 s 6.31 -2.831 6.31 -6.311 V 39.822 C 27.895 36.342 25.064 33.511 21.584 33.511 z" style="stroke: none; stroke-width: 1; stroke-dasharray: none; stroke-linecap: butt; stroke-linejoin: miter; stroke-miterlimit: 10; fill: rgb(0,0,0); fill-rule: nonzero; opacity: 1;" transform=" matrix(1 0 0 1 0 0) " stroke-linecap="round" />
	<path d="M 44.233 58.488 c -4.583 0 -8.311 -3.729 -8.311 -8.311 V 39.822 c 0 -4.583 3.728 -8.311 8.311 -8.311 s 8.31 3.728 8.31 8.311 v 10.356 C 52.543 54.76 48.815 58.488 44.233 58.488 z M 44.233 33.511 c -3.479 0 -6.311 2.831 -6.311 6.311 v 10.356 c 0 3.479 2.831 6.311 6.311 6.311 c 3.479 0 6.31 -2.831 6.31 -6.311 V 39.822 C 50.543 36.342 47.712 33.511 44.233 33.511 z" style="stroke: none; stroke-width: 1; stroke-dasharray: none; stroke-linecap: butt; stroke-linejoin: miter; stroke-miterlimit: 10; fill: rgb(0,0,0); fill-rule: nonzero; opacity: 1;" transform=" matrix(1 0 0 1 0 0) " stroke-linecap="round" />
	<path d="M 4.991 58.488 c -0.552 0 -1 -0.447 -1 -1 V 36.289 l -2.122 3.727 c -0.273 0.48 -0.883 0.648 -1.364 0.375 c -0.48 -0.273 -0.647 -0.884 -0.375 -1.364 l 3.991 -7.01 c 0.225 -0.395 0.687 -0.589 1.125 -0.472 c 0.438 0.116 0.744 0.513 0.744 0.967 v 24.977 C 5.991 58.041 5.543 58.488 4.991 58.488 z" style="stroke: none; stroke-width: 1; stroke-dasharray: none; stroke-linecap: butt; stroke-linejoin: miter; stroke-miterlimit: 10; fill: rgb(0,0,0); fill-rule: nonzero; opacity: 1;" transform=" matrix(1 0 0 1 0 0) " stroke-linecap="round" />
	<path d="M 68.215 46 c -2.567 0 -4.655 -2.088 -4.655 -4.655 v -5.178 c 0 -2.567 2.088 -4.655 4.655 -4.655 s 4.655 2.088 4.655 4.655 v 5.178 C 72.87 43.912 70.782 46 68.215 46 z M 68.215 33.511 c -1.464 0 -2.655 1.191 -2.655 2.655 v 5.178 c 0 1.464 1.191 2.655 2.655 2.655 s 2.655 -1.191 2.655 -2.655 v -5.178 C 70.87 34.702 69.679 33.511 68.215 33.511 z" style="stroke: none; stroke-width: 1; stroke-dasharray: none; stroke-linecap: butt; stroke-linejoin: miter; stroke-miterlimit: 10; fill: rgb(0,0,0); fill-rule: nonzero; opacity: 1;" transform=" matrix(1 0 0 1 0 0) " stroke-linecap="round" />
	<path d="M 85.345 58.488 c -2.567 0 -4.655 -2.088 -4.655 -4.655 v -5.178 c 0 -2.567 2.088 -4.655 4.655 -4.655 S 90 46.088 90 48.655 v 5.178 C 90 56.4 87.912 58.488 85.345 58.488 z M 85.345 46 c -1.464 0 -2.655 1.191 -2.655 2.655 v 5.178 c 0 1.464 1.191 2.655 2.655 2.655 S 88 55.297 88 53.833 v -5.178 C 88 47.191 86.809 46 85.345 46 z" style="stroke: none; stroke-width: 1; stroke-dasharray: none; stroke-linecap: butt; stroke-linejoin: miter; stroke-miterlimit: 10; fill: rgb(0,0,0); fill-rule: nonzero; opacity: 1;" transform=" matrix(1 0 0 1 0 0) " stroke-linecap="round" />
	<path d="M 69.355 58.488 c -0.174 0 -0.35 -0.045 -0.51 -0.141 c -0.475 -0.282 -0.631 -0.896 -0.349 -1.37 L 83.344 32 c 0.281 -0.476 0.896 -0.632 1.37 -0.349 c 0.475 0.282 0.631 0.896 0.349 1.37 L 70.216 57.999 C 70.029 58.313 69.696 58.488 69.355 58.488 z" style="stroke: none; stroke-width: 1; stroke-dasharray: none; stroke-linecap: butt; stroke-linejoin: miter; stroke-miterlimit: 10; fill: rgb(0,0,0); fill-rule: nonzero; opacity: 1;" transform=" matrix(1 0 0 1 0 0) " stroke-linecap="round" />
	<path d="M 8.873 58.488 H 1 c -0.552 0 -1 -0.447 -1 -1 s 0.448 -1 1 -1 h 7.873 c 0.552 0 1 0.447 1 1 S 9.425 58.488 8.873 58.488 z" style="stroke: none; stroke-width: 1; stroke-dasharray: none; stroke-linecap: butt; stroke-linejoin: miter; stroke-miterlimit: 10; fill: rgb(0,0,0); fill-rule: nonzero; opacity: 1;" transform=" matrix(1 0 0 1 0 0) " stroke-linecap="round" />
</g>
</svg>