<svg width="116" height="75" viewBox="0 0 116 75" fill="none" xmlns="http://www.w3.org/2000/svg">
<path d="M0.78125 9.98616L13.6193 2.44016H21.8513V73.0002H13.6193V10.8682L0.78125 18.1202V9.98616Z" fill="white"/>
<path d="M36.2664 19.7862C36.2664 14.0368 37.6711 9.46349 40.4804 6.06616C43.3551 2.66883 47.1444 0.937492 51.8484 0.872156C54.2658 0.741491 56.4544 1.13349 58.4144 2.04816C60.4398 2.89749 62.1711 4.17149 63.6084 5.87016C65.0458 7.50349 66.1564 9.49616 66.9404 11.8482C67.7244 14.2002 68.1164 16.8462 68.1164 19.7862C68.1164 25.5355 66.6464 30.1415 63.7064 33.6042C60.8318 37.0015 56.9444 38.7002 52.0444 38.7002C49.6924 38.7002 47.5364 38.2428 45.5764 37.3282C43.6164 36.4135 41.9504 35.1395 40.5784 33.5062C39.2064 31.8728 38.1284 29.8802 37.3444 27.5282C36.6258 25.1762 36.2664 22.5955 36.2664 19.7862ZM106.924 2.53816L53.2204 73.0002H44.6944L98.3984 2.53816H106.924ZM52.2404 32.1342C55.0498 32.0688 57.3038 30.9255 59.0024 28.7042C60.7011 26.4828 61.5504 23.5102 61.5504 19.7862C61.5504 16.0622 60.7011 13.0895 59.0024 10.8682C57.3691 8.64683 55.0824 7.53616 52.1424 7.53616C49.3331 7.53616 47.0791 8.64683 45.3804 10.8682C43.6818 13.0895 42.8324 16.0622 42.8324 19.7862C42.8324 23.5102 43.6491 26.4828 45.2824 28.7042C46.9811 30.9255 49.3004 32.0688 52.2404 32.1342ZM99.2804 74.5682C96.9284 74.5682 94.7724 74.1108 92.8124 73.1962C90.8524 72.2815 89.1864 71.0075 87.8144 69.3742C86.4424 67.7408 85.3644 65.7482 84.5804 63.3962C83.8618 61.0442 83.5024 58.4635 83.5024 55.6542C83.5024 49.9048 84.9071 45.3315 87.7164 41.9342C90.5911 38.5368 94.3804 36.8055 99.0844 36.7402C101.502 36.6095 103.69 37.0015 105.65 37.9162C107.676 38.7655 109.407 40.0395 110.844 41.7382C112.282 43.3715 113.392 45.3642 114.176 47.7162C114.96 50.0682 115.352 52.7142 115.352 55.6542C115.352 61.4035 113.882 66.0095 110.942 69.4722C108.068 72.8695 104.18 74.5682 99.2804 74.5682ZM108.786 55.6542C108.786 51.9302 107.937 48.9575 106.238 46.7362C104.605 44.5148 102.318 43.4042 99.3784 43.4042C96.5691 43.4042 94.3151 44.5148 92.6164 46.7362C90.9178 48.9575 90.0684 51.9302 90.0684 55.6542C90.0684 59.3782 90.8851 62.3508 92.5184 64.5722C94.2171 66.7935 96.5364 67.9368 99.4764 68.0022C102.286 67.9368 104.54 66.7935 106.238 64.5722C107.937 62.3508 108.786 59.3782 108.786 55.6542Z" fill="white"/>
</svg>
