<svg width="119" height="75" viewBox="0 0 119 75" fill="none" xmlns="http://www.w3.org/2000/svg">
<path d="M12.4446 65.26H45.9606V72.904L1.46862 73.002V64.182L29.3006 39.486C32.6326 36.546 34.9846 33.8346 36.3566 31.352C37.794 28.8693 38.5126 26.158 38.5126 23.218C38.5126 18.906 37.206 15.4433 34.5926 12.83C31.9793 10.2166 28.4186 8.90997 23.9106 8.90997C19.3373 8.90997 15.646 10.282 12.8366 13.026C10.0926 15.77 8.72062 19.494 8.72062 24.198H0.390625C0.390625 20.7353 0.978625 17.5993 2.15463 14.79C3.33063 11.9153 4.96396 9.4653 7.05463 7.43997C9.14529 5.41464 11.628 3.8793 14.5026 2.83397C17.4426 1.7233 20.6113 1.16797 24.0086 1.16797C27.602 1.16797 30.8033 1.75597 33.6126 2.93197C36.4873 4.10797 38.9046 5.70864 40.8646 7.73397C42.8246 9.69397 44.3273 12.0133 45.3726 14.692C46.418 17.3706 46.9406 20.2126 46.9406 23.218C46.9406 27.726 45.8953 31.6786 43.8046 35.076C41.7793 38.408 38.8066 41.7726 34.8866 45.17L12.4446 65.26Z" fill="white"/>
<path d="M88.2109 1.16797C92.9802 1.16797 97.2595 2.08264 101.049 3.91197C104.838 5.7413 108.04 8.2893 110.653 11.556C113.332 14.8226 115.357 18.71 116.729 23.218C118.166 27.726 118.885 32.6586 118.885 38.016C118.885 43.4386 118.166 48.3713 116.729 52.814C115.292 57.2566 113.234 61.0786 110.555 64.28C107.876 67.416 104.642 69.866 100.853 71.63C97.1289 73.3286 92.9475 74.178 88.3089 74.178C83.5395 74.178 79.2602 73.296 75.4709 71.532C71.6815 69.7026 68.4802 67.1873 65.8669 63.986C63.2535 60.7193 61.2282 56.8646 59.7909 52.422C58.4189 47.914 57.7329 42.9813 57.7329 37.624C57.7329 32.2013 58.4515 27.2686 59.8889 22.826C61.3915 18.3833 63.4495 14.5613 66.0629 11.36C68.7415 8.0933 71.9429 5.57797 75.6669 3.81397C79.4562 2.04997 83.6375 1.16797 88.2109 1.16797ZM88.4069 66.534C91.8695 66.534 94.9729 65.8153 97.7169 64.378C100.461 62.9406 102.78 60.948 104.675 58.4C106.635 55.852 108.105 52.814 109.085 49.286C110.13 45.758 110.653 41.9033 110.653 37.722C110.653 33.4753 110.13 29.588 109.085 26.06C108.04 22.532 106.537 19.494 104.577 16.946C102.682 14.398 100.33 12.438 97.5209 11.066C94.7769 9.62864 91.6735 8.90997 88.2109 8.90997C84.7482 8.90997 81.6449 9.62864 78.9009 11.066C76.1569 12.5033 73.8049 14.5286 71.8449 17.142C69.9502 19.69 68.4802 22.728 67.4349 26.256C66.3895 29.784 65.8669 33.6386 65.8669 37.82C65.8669 42.0666 66.3895 45.954 67.4349 49.482C68.4802 53.01 69.9829 56.048 71.9429 58.596C73.9029 61.0786 76.2549 63.0386 78.9989 64.476C81.8082 65.848 84.9442 66.534 88.4069 66.534Z" fill="white"/>
</svg>
